<?xml version="1.0" standalone="no"?>
<!DOCTYPE svg PUBLIC "-//W3C//DTD SVG 20010904//EN"
 "http://www.w3.org/TR/2001/REC-SVG-20010904/DTD/svg10.dtd">
<svg version="1.0" xmlns="http://www.w3.org/2000/svg"
 width="300.000000pt" height="300.000000pt" viewBox="0 0 300.000000 300.000000"
 preserveAspectRatio="xMidYMid meet">
<metadata>
Created by potrace 1.11, written by Peter Selinger 2001-2013
</metadata>
<g transform="translate(0.000000,300.000000) scale(0.100000,-0.100000)"
fill="#000000" stroke="none">
<path d="M7 1503 c0 -538 1 -980 2 -983 1 -6 323 -2 329 5 4 4 6 1912 3 1948
-1 4 -76 7 -168 7 l-168 0 2 -977z"/>
<path d="M1288 2473 c-3 -4 -4 -100 -4 -212 1 -149 -2 -205 -11 -208 -7 -3
-141 -5 -300 -6 l-287 -2 0 -160 0 -160 249 -2 c138 -1 266 -2 286 -2 l36 -1
0 -215 0 -215 -283 0 c-263 0 -284 -1 -285 -17 -4 -64 -3 -307 1 -314 4 -5
138 -10 300 -11 l295 -3 0 -212 0 -213 85 0 c286 -2 655 1 715 4 237 14 451
112 630 291 198 196 287 429 279 726 -1 65 -5 123 -8 128 -3 5 -8 26 -12 47
-20 139 -118 322 -241 450 -155 163 -336 261 -548 298 -88 15 -890 23 -897 9z
m787 -442 c60 -14 161 -62 195 -92 14 -11 32 -26 41 -33 43 -31 119 -156 134
-220 19 -85 23 -123 20 -216 -6 -190 -61 -309 -190 -406 -95 -72 -193 -102
-361 -111 l-122 -6 0 544 c0 299 2 547 5 551 6 11 220 2 278 -11z"/>
</g>
</svg>
